# xmcd
#
# Track frame offsets:
#	150
#	13833
#	31011
#	54809
#	70216
#	88791
#	109148
#	121441
#	139124
#	159811
#	173066
#	193188
#	207405
#	222342
#	240092
#	251457
#	270635
#	292037
#	308490
#	327049
#
# Disc length: 4580 seconds
#
# Revision: 0
# Processed by: cddbd v1.5.2PL0 Copyright (c) Steve Scherf et al.
# Submitted via: audiograbber 1.83.01
#
DISCID=1211e214
DTITLE=Michael Buble - come fly with me
DYEAR=2006
DGENRE=Blues
TTITLE0=nice 'n easy
TTITLE1=can't help falling in love
TTITLE2=my funny valentine
TTITLE3=mack the knife
TTITLE4=fever
TTITLE5=you'll never know
TTITLE6=for once in my life
TTITLE7=moondance
TTITLE8=kissing a fool
TTITLE9=summer wind
TTITLE10=put your head on my shoulder
TTITLE11=sway
TTITLE12=come fly with me
TTITLE13=feeling good
TTITLE14=a foggy day (in London town)
TTITLE15=you don't know me
TTITLE16=quando quando quando
TTITLE17=save the last dance for me
TTITLE18=try a little tenderness
TTITLE19=I've got you under my skin
EXTD=
EXTT0=
EXTT1=
EXTT2=
EXTT3=
EXTT4=
EXTT5=
EXTT6=
EXTT7=
EXTT8=
EXTT9=
EXTT10=
EXTT11=
EXTT12=
EXTT13=
EXTT14=
EXTT15=
EXTT16=
EXTT17=
EXTT18=
EXTT19=
PLAYORDER=
